<svg xmlns="http://www.w3.org/2000/svg" viewBox="0 0 100 100" width="100%" height="100%">
  <!-- 圆形背景 -->
  <circle cx="50" cy="50" r="45" fill="#ef4444" stroke="#f8fafc" stroke-width="3" />
  
  <!-- 愤怒机器人主体 -->
  <g transform="translate(0, 5)">
    <path d="M 45 25 L 55 5 L 55 25 Z" fill="#4B5563" stroke="#1F2937" stroke-width="2" stroke-linejoin="round" />
    <rect x="12" y="45" width="6" height="16" rx="2" fill="#9CA3AF" stroke="#1F2937" stroke-width="2" />
    <rect x="82" y="45" width="6" height="16" rx="2" fill="#9CA3AF" stroke="#1F2937" stroke-width="2" />
    <rect x="18" y="25" width="64" height="56" rx="12" fill="#4B5563" stroke="#1F2937" stroke-width="3" />
    <rect x="26" y="33" width="48" height="32" rx="6" fill="#111827" />
    
    <!-- 愤怒的眼睛和嘴巴 -->
    <line x1="32" y1="40" x2="44" y2="44" stroke="#F97316" stroke-width="2.5" stroke-linecap="round" />
    <line x1="68" y1="40" x2="56" y2="44" stroke="#F97316" stroke-width="2.5" stroke-linecap="round" />
    <circle cx="40" cy="48" r="4" fill="#F97316" />
    <circle cx="60" cy="48" r="4" fill="#F97316" />
    <path d="M 36 56 L 40 52 L 44 56 L 48 52 L 52 56 L 56 52 L 60 56 L 64 52" fill="none" stroke="#F97316" stroke-width="2" stroke-linecap="round" stroke-linejoin="round" />
  </g>
</svg>
